<?xml version="1.0" encoding="UTF-8" standalone="no"?><!DOCTYPE svg PUBLIC "-//W3C//DTD SVG 1.1//EN" "http://www.w3.org/Graphics/SVG/1.1/DTD/svg11.dtd"><svg width="100%" height="100%" viewBox="0 0 390 390" version="1.1" xmlns="http://www.w3.org/2000/svg" xmlns:xlink="http://www.w3.org/1999/xlink" xml:space="preserve" style="fill-rule:evenodd;clip-rule:evenodd;stroke-linejoin:round;stroke-miterlimit:1.41421;"><g><path d="M351.86,195.32c0,86.81 -70.372,157.18 -157.18,157.18c-86.807,0 -157.18,-70.37 -157.18,-157.18c0,-86.808 70.373,-157.18 157.18,-157.18c86.808,0 157.18,70.372 157.18,157.18Z" style="fill:url(#_Linear1);"/><path d="M194.68,0.64c-26.265,0 -51.765,5.152 -75.79,15.315c-23.187,9.807 -44.002,23.84 -61.87,41.705c-17.867,17.867 -31.9,38.685 -41.707,61.87c-10.16,24.028 -15.313,49.525 -15.313,75.79c0,26.267 5.153,51.765 15.313,75.79c9.807,23.187 23.84,44.005 41.707,61.87c17.868,17.867 38.683,31.9 61.87,41.707c24.025,10.16 49.525,15.313 75.79,15.313c26.265,0 51.765,-5.153 75.79,-15.313c23.188,-9.807 44.003,-23.84 61.87,-41.707c17.865,-17.865 31.898,-38.683 41.705,-61.87c10.163,-24.025 15.315,-49.523 15.315,-75.79c0,-26.265 -5.152,-51.762 -15.315,-75.79c-9.807,-23.185 -23.84,-44.003 -41.705,-61.87c-17.867,-17.865 -38.682,-31.898 -61.87,-41.705c-24.025,-10.163 -49.525,-15.315 -75.79,-15.315ZM194.68,38.14c86.808,0 157.18,70.372 157.18,157.18c0,86.81 -70.372,157.18 -157.18,157.18c-86.807,0 -157.18,-70.37 -157.18,-157.18c0,-86.808 70.373,-157.18 157.18,-157.18Z" style="fill:url(#_Linear2);"/><path d="M194.68,38.14c-86.807,0 -157.18,70.372 -157.18,157.18c0,86.81 70.373,157.18 157.18,157.18c86.808,0 157.18,-70.37 157.18,-157.18c0,-86.808 -70.372,-157.18 -157.18,-157.18ZM194.68,41.89c20.715,0 40.808,4.058 59.72,12.055c18.27,7.727 34.68,18.793 48.773,32.882c14.092,14.093 25.155,30.503 32.882,48.773c8,18.912 12.055,39.007 12.055,59.72c0,20.715 -4.055,40.807 -12.055,59.722c-7.727,18.27 -18.79,34.678 -32.882,48.77c-14.093,14.093 -30.503,25.155 -48.773,32.883c-18.912,8 -39.005,12.055 -59.72,12.055c-20.715,0 -40.807,-4.055 -59.722,-12.055c-18.27,-7.728 -34.678,-18.79 -48.77,-32.883c-14.093,-14.092 -25.155,-30.5 -32.883,-48.77c-8,-18.915 -12.055,-39.007 -12.055,-59.722c0,-20.713 4.055,-40.808 12.055,-59.72c7.728,-18.27 18.79,-34.68 32.883,-48.773c14.092,-14.089 30.5,-25.155 48.77,-32.882c18.915,-7.997 39.007,-12.055 59.722,-12.055Z" style="fill:url(#_Linear3);"/><path d="M154.346,278.797l21.656,-5.458l-57.689,-21.653l36.033,27.111Z" style="fill:#fefefe;fill-rule:nonzero;"/><path d="M213.609,273.339l21.656,5.458l36.034,-27.111l-57.69,21.653Z" style="fill:#fefefe;fill-rule:nonzero;"/><path d="M234.899,276.979l-15.693,-3.955l41.804,-15.691l-26.111,19.646ZM154.712,276.979l-26.111,-19.646l41.804,15.691l-15.693,3.955ZM273.857,81.825l-24.011,62.956c6.896,5.529 13.006,12.018 18.23,19.228c-10.322,-9.984 -22.86,-18.01 -37.227,-23.242c-39.189,-14.259 -81.342,-3.843 -109.437,23.312c5.322,-7.345 11.457,-13.777 18.197,-19.195l-24.106,-63.059l-23.103,132.7l28.502,78.288l73.874,40.037l74.1,-40.213l28.349,-77.836l-23.368,-132.976Z" style="fill:#18191c;fill-rule:nonzero;"/><path d="M194.776,332.85l74.1,-40.213l-59.688,8.128l-14.442,-60.197l0.03,92.282Z" style="fill:#3a3b3e;fill-rule:nonzero;"/></g><defs><linearGradient id="_Linear1" x1="0" y1="0" x2="1" y2="0" gradientUnits="userSpaceOnUse" gradientTransform="matrix(-1.37412e-05,314.362,-314.362,-1.37412e-05,194.681,38.139)"><stop offset="0%" style="stop-color:#f3f3f4;stop-opacity:1"/><stop offset="100%" style="stop-color:#8c8f93;stop-opacity:1"/></linearGradient><linearGradient id="_Linear2" x1="0" y1="0" x2="1" y2="0" gradientUnits="userSpaceOnUse" gradientTransform="matrix(-1.70195e-05,389.362,-389.362,-1.70195e-05,194.681,0.638984)"><stop offset="0%" style="stop-color:#505257;stop-opacity:1"/><stop offset="70%" style="stop-color:#18181b;stop-opacity:1"/><stop offset="100%" style="stop-color:#18181b;stop-opacity:1"/></linearGradient><linearGradient id="_Linear3" x1="0" y1="0" x2="1" y2="0" gradientUnits="userSpaceOnUse" gradientTransform="matrix(-1.37411e-05,-314.361,314.361,-1.37411e-05,194.681,352.5)"><stop offset="0%" style="stop-color:#f3f3f4;stop-opacity:1"/><stop offset="35%" style="stop-color:#2c2d31;stop-opacity:1"/><stop offset="40%" style="stop-color:#18181b;stop-opacity:1"/><stop offset="50%" style="stop-color:#18181b;stop-opacity:1"/><stop offset="100%" style="stop-color:#1f1d1f;stop-opacity:1"/></linearGradient></defs></svg>